<mxfile host="65bd71144e">
    <diagram id="HIP3nbAZw_EuaXWnEj3U" name="Page-1">
        <mxGraphModel dx="606" dy="514" grid="1" gridSize="10" guides="1" tooltips="1" connect="1" arrows="1" fold="1" page="1" pageScale="1" pageWidth="850" pageHeight="1100" background="#ffffff" math="0" shadow="0">
            <root>
                <mxCell id="0"/>
                <mxCell id="1" parent="0"/>
                <mxCell id="7" value="http://ics2o.mths.ca" style="swimlane;whiteSpace=wrap;html=1;" parent="1" vertex="1">
                    <mxGeometry x="40" y="40" width="760" height="480" as="geometry"/>
                </mxCell>
                <mxCell id="9" value="Volume Of A Sphere" style="whiteSpace=wrap;html=1;fontSize=21;fillColor=#b0e3e6;strokeColor=#0e8088;fontColor=#000000;" vertex="1" parent="7">
                    <mxGeometry y="20" width="760" height="60" as="geometry"/>
                </mxCell>
                <mxCell id="10" value="" style="shape=image;verticalLabelPosition=bottom;labelBackgroundColor=default;verticalAlign=top;aspect=fixed;imageAspect=0;image=data:image/jpeg,/9j/4AAQSkZJRgABAQAAAQABAAD/2wCEAAoHCBQSEhEVFBITFBcVGBIXEhQXFxIUFxsXFxQbGhcXGBcbICwkGx4rHhcXJTYlKS4yM0A1GiJGPjkyPiwyMzABCwsLEA4QHRISHTMpJCkwNDYwMjMwPTIwMjIyMDIyMjAwMjAyODIyMjI1MjIyMjIyMjIyMjIyMjIyMjAwMjIyMv/AABEIAJ8BPgMBIgACEQEDEQH/xAAbAAEAAwEBAQEAAAAAAAAAAAAAAwQFAgEGB//EAEEQAAIBAgMDBg0BBgYDAAAAAAECAAMRBBIhBTFBEyJRYXGRBhUyUlSBkqGkscHS00IjYnLR4fAUc3SytMQzgqL/xAAXAQEBAQEAAAAAAAAAAAAAAAAAAgED/8QAKREBAQACAQMEAAYDAQAAAAAAAAECERIhMfADQVHRUmFxgZHhobHBIv/aAAwDAQACEQMRAD8A/ZoiICIiAiIgIiICIiAmN/i8Q9SqKSUstNghLu4YtkVibKpAHOtv4GbMytj+Xjf9R/16UypvePb4zzcN7db7YvjPNw3t1vtkfhBj3w9IVVVWVHp8uCGJFImzMtj5QuDx0BlfEbeCVsRfLyOHSlyrgMzGrVI5NEtodCOG9hukWyd6m2S6t88i5fGebhvbrfbF8Z5uG9ut9sy9p+EmXD4lkRqdaitNjSqprlqVAoawNmB13HQjWaNfbaIcWCrk4VEqVLBdVdWYBedqbId9uEcsfnzyM5Y/PnX6ru+M83De3W+2L4zzcN7db7ZVxvhHTotlNKu55NazFFVgtMlgWY5tLZTf3XnuE8JKVRmBWrTApmqruhVHprbM6HeQLg6gHXdG5223eO9bWb4zzcN7db7YvjPNw3t1vtnGztt06z5AlSmxTlEFRQM9O4GdbE6ajQ2Oo0nm0dupRc08lWo4TlHFNQ2RLkZ2JI6DoLnTdHLHW9m5re0l8Z5uG9ut9sXxnm4b2632zOfbr1MVh6VAXpvTFVqhRnzIStsvOGUc7ViDY2Fp34Q7ZfD1KKKKaLUDlq9XPyalbWXmfqNzvIGnGLlJ1Zymt7q9fGebhvbrfbF8Z5uG9ut9sqvt0Uxh1ZGq1K6VGT/D2qIcmXNlZiNLMCCdND1XqYnwm5+DNJHqJWOJV0FMmqGpL5AUkZSGve+lhv4xcsZ7+dPsuWM9/On3GrfGebhvbrfbF8Z5uG9ut9srL4R0jSpOq1WNV3SnSCWqZ0vnUgkAZcpuSbdc5q+ElJadKoEqvyjvSCIl6gqIGzIyEixutvWOGscsfk5Y/K3fGebhvbrfbF8Z5uG9ut9srYrwkpU3ZWSrankFeoEulMuAVDnffnC+UG19bTdmzV7VU1e1ZuzMW1TlVqKqvSfI2UllJyK4IJAO5138QZpTL2T/AOXG/wCeP+NRmpKjcexERNUREQEREBERAREQEREBERAREQEREBERATK2P5eN/wBR/wBelNWZL7KOd3SvWpcoQzqnJEFgoXNz0Yg2VRobaTKm95WhiaC1EdHF1dWVh0hhYjuMxML4MUkwjYUs7BmztUuA+cFSjAjcVyIB/DLviyp6bivhvxR4sqem4r4b8UmyXvE3GW7uKhW8GVqJXFSvVqPWWkrVW5MEJTfOqqqqFAve+nGd7T8HVrvWcVqtLlkVKypkyuEvkJzKSLZjuIuPXe54sqem4r4b8UeLKnpuK+G/FM44/HnlZwn4fP5/Oo6mxVZqjZ2u+HGHOi6KM3OH73OPVOW2CjckHZmVKD4cqbDMrBQSSNQbLw6ZN4sqem4r4b8UeLKnpuK+G/FN1PhWvyVti+DqYViyuX5oVb08OpA/iRAzE6XJPCdbR2GKtRqqV6tB2Tk6hp5OclyQCGU2IubMLHWT+LKnpuK+G/FHiyp6bivhvxRxmtaZxmuPHo8wuxkpVaVRSQKdE0FTeMuZWuTvJ5o753tHZ71SpTE1aNgQQgosrA+cKitrpvnPiyp6bivhvxR4sqem4r4b8U39m66a0yH8GmR8CtCpUppQTFA1AaZfNVZG1VlIYE57i1ui2kv4TweSk2FZXcmga7XbKS7VhZ2c23310tLHiyp6bivhvxR4sqem4r4b8UmYSe3k19RM9OTtj5NfUUcR4LUnpqhdrpUq1Ucim1jUJLKVZSrLruI4CWKOwEVcMA5/YO1QEJSTOzKynMEUKNG4DgJN4sqem4r4b8UeLKnpuK+G/FN4z4bxn4VHF+C9J67VsxBcq1RClB1YqANC6MVuAAcpF59CBMzxZU9NxXw34o8WVPTcV8N+KbJJ2jZNdobJ/wDJjf8APH/GozUlHZ+AFFWAd3Z2zO7lczNlC3OUADmqo0A3S9KjcZ0IiIUREQEREBERAREQEREBERAREQEREBESGtXVBdjboHE9ggTThnA3kDtIEya+0WbReaO8/wBJSYEm5JJ6TrIufwjn8NttoUx+q/YCZC216QNixHDVWt37pkuvDXW+7o4/31zvkxa1tN1uqTzqedbK4+mf1W7QR85YRwdQQew3nzNJSMyk3I1HTlO6/cR6pILrqCQekEibzreb6WJjUNpMuj84dO4/1mpRrK4upv8A3xlzKVcylSxETWkREBERAREQEREBERAREQEREBERAREQEREBERAREQEREBESDE1gilj6h0ngIEeNxYpjpY7h9T1TGdi5uxuYZi5LHUmdqs5W7ccstuVSdhJ2qyRVmaZpCqm59Vvr/fVOsk7pLoCONz3m/wBZLljStKNVLMjW3koextR7wB652UkmKU5GI3gXH/qb/SYfhHtGvSrYSlQCE1zVU5wSLjJlNxqAMxJt0TMrqbqM7MZutVkkZxBpA1LkBRc6E3HRYb+ydUwyUgarqWVSajgZV01JtwEhSmajCowsFuaQ5w0ZQMzg/q8oW4A9MFr6DBYsVFBtlNhdTvEtz5um5Rgy7x7+ozeoVQ6hhx9x4idcctu2OW00REpRERAREQEREBERAREQEREBERAREQEREBERAREQEREBMTaVbO+Ubl09fH+U1a9TIrN0An18JgLIzvsjO+ztRJVWcqJMgkRDoLOmFgSBc2NhAIFrkC+7UTp2FiM1unf024SpFSOlXQTrJPQ4tfney3ytOr62se5rd9rStN0idLgjp0mPX2WlZsJWZ2U4cMwHNscyrfMTutlm2WFiddP3W/lMrD1OWA1y0gxyEFctUHMLEW8jVe0g8BrOWO+icsZZqiLypV91MWanZjzwyeU46OcbA9p4WnYSckagEabxcSNhMZpVcSzsutlbKdzbu3+/pIXEiJsQRvGo9UmXXVkun0sSOk+ZVPSAe8SSd3ciIgIiICc5h0yvjsWlGm9RzZEUsx36DoHEz8+wPhDRasuMxDKzNUFPDUAQTh0N1LtfieJ6+sAc8/Uxxslcs/Vxwsl8ny/S4kOHrrURXQhlYAqw3EEXBEmnR1IiRVXygkAtYE5Ra5sNwuQL9pgSxMvZW1RieUtSqU+TfIc/JG7Ac4AozA23HXfpwM1JksvWMllm4RETWkREBERAREQEREBERAo7Va1O3SVH1+kx0a/k6+4d80tutamp6HW56tbnuvKCTln3cs+6VVNxr6hb5yVKQ7b77kn5zhZYWJCJEQDcLTp9wuL6r/uFoWdm+lule6+vulriVVnVp6shxFNmACvl5wLaAkqDcqL7r7r9BPHUa1TqMarFVJWmpUu3NK1NGzU1PQDbMe0dMkwyhVYDcGcADQDnE2t1XlmlRVEVEUKqgBVAsABuAEr0f16frf5zE6eOgN9JXekLWGnYSPlLTyBpNZVV1N9+nRb6yB26dOG+/vlp5XqWsb2txvukIbOzGvTXquPfLkzNhOWpXPFmt2aW91ppztj2dsexERNawNp43FJVK0hhMlhblarK97a3UDdL+yq1R6StV5LOSb8kxZNGNrE79LXnGM2FhqzmpVw9N2IALMLmw3CWcFg6dBBTpoqKLkKosBc3OnaZGMu/PpEmW+vb9f6VcVtGjzkqLUYbmX/D16in1hCpExdp4PBV+S/Z1afJur8zCV1zW/Q/7LVT0T62fD7Z2rtChVpUhVwrvWcilTCPmCXNmckgAab+o23GT6l1Ovn+UerdT/11n6f2+jpbUogKqLWUaKqjD4hVA3AeRYCYPhji8ZS5apTqtRo0kpFSq0mz1HqhCpLXIsDfQWn19HNlXMQWsMxG69tbdV5U2vsuniqTUqmbIxUtlOUnKbjXtAm54242T6b6mOWWNk7+3s+Z2I2KbHVKVTGO60kpVGU06IzcooJQ2FwBfeI8E6uLxQeo+LIRGq0wgp08xJXRyxFtMykCxGms+mo7MppXqVxfPUVFbXm2TdYcJzsfZFPCI6Us1ndqjZjmOZgAfVoJM9Oyz9/f+E4+lZZ8bvvfnoi2RsgYdqzmoXeqULnKiLzAQLKoAvqbnedOia8ROsknSO0kk1CIia0iIgIiICIiAiIgIiIFHaq3p36CD9PrMNaZW2Q5R5pF19XEfLqn0mKp50ZekadvD3zAQznn3c8+7tapHlI3avPHcNfdJ0xKac8C+4NzT3GxkaGTqb79ZkTFlTOntYX6V78wtKow9O98i34kAA94nT0Fym2bgbB6nT2y4uVoKZ1mlIUhpz6mn7x+s95Lfz6ntf0mqWWMq0To3Hn1P9xH0g0Rpz6ntsPlK2HoqVvzzc1Dq7kaueF7QLLtbfpKj4lL2zAnoHOPcJ2cPTH6F9YB+c8JkVFVWqsb5UPUW5o+p90helexY3twGi36bcfXLTGQtrIqGzstbUx1lj77fSXJFRTKqr0ACSztOztOxERNaREQPDPz/wAIMNisWr032UnKHmpieWpEKge4I48TpfidOE/QZ5aRnhzmtufqenzmrf8AX/ZVTZtBqdGkjNnZERWfzmVQC3rIlyIlrk0REQ0iIgIiICIiAiIgIiICIiAiIgJg4+jkc9Daj6ib0rYzD8otuI1U9cnKbicpuMZGkytK2oJB0I0IkqtOUcllWnbm4IvbQ6+qVw0kDS9qWFe4E6zSrSfmi2lri3YbfSd5pu27Ss9pBhyeTS+/Kt+22sjxbfs3F7XGUHrbmj3kTstMNvWaQs09ZpEzTE2vHaTbOo5nvwXX18P5+qVrFiABcncJu4WgEUDjvJ6TMxm63GbqxEROzqREQEREBERAREQEREBERAREQEREBERAREQEREBERAREQKOOwefnLow98yNQSCLEbxPpZWxOEV9+h4MN/wDWRljtGWO2MrSQNPK2DdOGYdI17xwkQec+zmmV9Tr1junWeVne3O6Pkd86zzdj2s12RbcSx7F3f/RXukhaU6TXJe+jWy/wjd3kk90lLzLR2zzixYgAXJ3CT0ME78Mo6T9BNbDYVUGg14k75sxtVMbUWBwfJi51Y+7qEuxE7To6yaIiICIiAiIgIiICIiAiIgIiICIiAiIgIiICIiAiIgIiICIiAiIgJBVwqPvUdu494k8QM87LTgWHrB+kibYynezEcRw7t01Yk8YnjGeuy0G8sfWB8hLNLDInkqB17z3mTxN1I2SQiImtIiICIiAiIgIiICIiAiIgIiICIiAiIgIiICIiB//Z;" vertex="1" parent="7">
                    <mxGeometry x="430" y="90" width="318" height="159" as="geometry"/>
                </mxCell>
                <mxCell id="11" value="&lt;div&gt;Formula:&lt;/div&gt;&lt;div&gt;&lt;br&gt;&lt;/div&gt;&lt;div&gt;V = 4/3 x π x r³&lt;/div&gt;&lt;div&gt;&lt;br&gt;&lt;/div&gt;&lt;div&gt;&lt;br&gt;&lt;/div&gt;&lt;div&gt;Dimensions:&lt;/div&gt;&lt;div&gt;&lt;br&gt;&lt;/div&gt;&lt;div&gt;Radius (r) =&lt;/div&gt;&lt;div&gt;&lt;br&gt;&lt;/div&gt;" style="text;html=1;align=left;verticalAlign=middle;resizable=0;points=[];autosize=1;strokeColor=none;fillColor=none;fontSize=21;fontColor=#000000;" vertex="1" parent="7">
                    <mxGeometry y="80" width="160" height="240" as="geometry"/>
                </mxCell>
            </root>
        </mxGraphModel>
    </diagram>
</mxfile>